<?xml version="1.0" standalone="no"?>
<!DOCTYPE svg PUBLIC "-//W3C//DTD SVG 20010904//EN"
 "http://www.w3.org/TR/2001/REC-SVG-20010904/DTD/svg10.dtd">
<svg version="1.0" xmlns="http://www.w3.org/2000/svg"
 width="234.000000pt" height="234.000000pt" viewBox="0 0 234.000000 234.000000"
 preserveAspectRatio="xMidYMid meet">
<metadata>
Created by potrace 1.14, written by Peter Selinger 2001-2017
</metadata>
<g transform="translate(0.000000,234.000000) scale(0.100000,-0.100000)"
fill="#000000" stroke="none">
<path d="M980 2324 c-247 -44 -461 -155 -635 -329 -148 -148 -246 -313 -300
-507 -36 -126 -44 -201 -40 -343 3 -128 7 -160 26 -240 5 -22 12 -49 14 -61 3
-12 20 -59 39 -105 178 -441 580 -721 1051 -735 207 -6 380 32 557 121 306
154 530 432 612 760 26 106 28 118 31 261 3 158 -9 243 -56 389 -80 251 -249
470 -474 616 -125 80 -250 132 -404 165 -98 22 -321 26 -421 8z"/>
</g>
</svg>
